<svg xmlns="http://www.w3.org/2000/svg" viewBox="0 0 206.45 316.21"><defs><style>.cls-1{fill:#ff8b66;}.cls-2{fill:#ef6e4b;}.cls-3{fill:#0e3944;}.cls-4{fill:#0c476b;}.cls-5{fill:#ffb878;}.cls-6{fill:#8b383e;}.cls-7{fill:#db614d;}.cls-8{fill:#1a4850;}.cls-9{fill:#105e99;}.cls-10{fill:#662c33;}</style></defs><g id="Layer_2" data-name="Layer 2"><g id="OBJECTS"><path class="cls-1" d="M4.3,13.92A23.88,23.88,0,0,1,9,15.34c2.58,1.59,4,2.45,5.73,2.59S17.15,21,17.15,21s6.73,1.47,7.11-2.77c0,0-3.76-5.32-4-6-.53-1.43.44-3.58-1.07-6A21.41,21.41,0,0,1,16.92.07s-1.49-.47-1.65,1,.94,3.52.66,4.16a1.33,1.33,0,0,1-.2.35.06.06,0,0,0,0,0,1.64,1.64,0,0,1-1.14.75h-.11C12.79,6.34,9.84,4,8.62,2.85,6.94,1.23,4.5-.86,3.94.55S5.23,1.88,8.3,6.15L8,6.59c.21.32-3-1.3-5.62-3.32C.59,1.88.22,3.53.53,4.25S2.83,6.1,4.1,7.13L6.38,8.88l-.17.7c-4.4-1-5.09-2.62-6-1.7S2,10.66,3.41,11A12.22,12.22,0,0,1,6,12.24c-3.51-.08-4.37-1.2-4.95-.3S3.09,13.9,4.3,13.92Z"/><path class="cls-2" d="M15.5,10.67c-1.07-2,.07-4.72.22-5a1.64,1.64,0,0,1-1.14.75A3.87,3.87,0,0,0,15.5,10.67Z"/><path class="cls-1" d="M202.15,13.92a23.88,23.88,0,0,0-4.72,1.42c-2.58,1.59-4,2.45-5.72,2.59S189.3,21,189.3,21s-6.72,1.47-7.1-2.77c0,0,3.76-5.32,4-6,.53-1.43-.44-3.58,1.07-6A21.41,21.41,0,0,0,189.53.07s1.49-.47,1.66,1-.95,3.52-.67,4.16a1.33,1.33,0,0,0,.2.35.06.06,0,0,1,0,0,1.66,1.66,0,0,0,1.15.75h.1c1.68,0,4.64-2.37,5.85-3.53,1.68-1.62,4.13-3.71,4.68-2.3s-1.29,1.33-4.36,5.6l.31.44c-.2.32,3-1.3,5.62-3.32,1.78-1.39,2.16.26,1.85,1s-2.3,1.85-3.58,2.88l-2.27,1.75.16.7c4.4-1,5.09-2.62,6-1.7S204.44,10.66,203,11a12.22,12.22,0,0,0-2.62,1.26c3.51-.08,4.37-1.2,5-.3S203.37,13.9,202.15,13.92Z"/><path class="cls-2" d="M191,10.67c1.06-2-.08-4.72-.23-5a1.66,1.66,0,0,0,1.15.75A3.89,3.89,0,0,1,191,10.67Z"/><path class="cls-3" d="M143.06,217.77l-12.92-80-25.87,2.89L78.4,137.78l-12.92,80-6.2,77.58s2,6.43,14.87,2c0,0,9.58-72,11.06-73.54s16.68-48.59,16.68-48.59h4.76s15.2,47,16.68,48.59,11,73.54,11,73.54c12.91,4.44,14.88-2,14.88-2Z"/><path class="cls-4" d="M96.12,60.32c1.63,1.59,9.67,4.45,13.92,0l2.88,2.82s-3.29,7.72-9,8S94,64.26,94,64.26Z"/><path class="cls-4" d="M118.89,59.44c9.62-4.14,40.71-15.15,40.71-15.15s20.89-26.18,25.16-30.07c0,0,4.62.84,6,6.59,0,0-13.45,28.82-20.77,37.07S125.6,84,125.6,84Z"/><path class="cls-5" d="M85.21,58.85c2.86-1.81,17.23,7.81,17.23,7.81s18.69-9.93,23.07-8c0,0,4,5.29,5.54,18.89s1.69,69.53,1.69,69.53a97.41,97.41,0,0,1-29.55,4.45C83.82,151.52,73.4,146,73.4,146S69.94,68.51,85.21,58.85Z"/><path class="cls-2" d="M96.88,57.4s2.07,6.51,0,9c0,0,2.15,4.51,6,4.71,4.46.23,6-4.71,6-4.71s-2.36-6.28,0-8.49Z"/><path class="cls-6" d="M91.72,51s-4.36-8.38-3.49-17.34,14.36-11,23.45-6.61c0,0-2.7-2.64-1.64-3.37s2.88,4,2.88,4,2.87-.88,3.31,0S113.29,29,113.29,29s5.87,3.25.38,20.58Z"/><path class="cls-1" d="M91.06,45.68s-3.24-3.24-3.64.55c-.47,4.39,3.52,6.16,4.3,4.76S91.06,45.68,91.06,45.68Z"/><path class="cls-1" d="M113.8,45.91s3.25-3.24,3.65.55c.46,4.39-3.52,6.16-4.3,4.76S113.8,45.91,113.8,45.91Z"/><path class="cls-1" d="M102.09,61.58c-7.2,0-11.27-4.71-11.27-18.82,0-7.28,3.7-11.75,11.77-11.75s11.47,4.47,11.47,11.75C114.06,57.92,109.53,61.58,102.09,61.58Z"/><path class="cls-7" d="M111.68,47.79a1.53,1.53,0,0,1-1.41,1.6,1.36,1.36,0,1,1,1.41-1.6Z"/><path class="cls-7" d="M96.86,48.19a1.7,1.7,0,1,1-1.58-1.44A1.53,1.53,0,0,1,96.86,48.19Z"/><path class="cls-6" d="M108.38,40.47a.38.38,0,0,1-.26-.11,4.12,4.12,0,0,0-2.77-1A.35.35,0,0,1,105,39a.37.37,0,0,1,.35-.38,4.84,4.84,0,0,1,3.31,1.23.36.36,0,0,1,0,.51A.35.35,0,0,1,108.38,40.47Z"/><path class="cls-6" d="M94.82,40.47a.35.35,0,0,1-.25-.1.35.35,0,0,1,0-.51,4.81,4.81,0,0,1,3.31-1.23.37.37,0,0,1,.35.38.36.36,0,0,1-.37.34,4.17,4.17,0,0,0-2.77,1A.38.38,0,0,1,94.82,40.47Z"/><path class="cls-8" d="M107.76,44.29c0,.9-.4,1.62-.9,1.62s-.9-.72-.9-1.62.4-1.62.9-1.62S107.76,43.4,107.76,44.29Z"/><path class="cls-8" d="M98.14,44.29c0,.9-.4,1.62-.9,1.62s-.9-.72-.9-1.62.4-1.62.9-1.62S98.14,43.4,98.14,44.29Z"/><path class="cls-8" d="M98.14,53.86s6.35.82,9.62-.75c0,0-1.85,4.33-5.32,3.94A4.93,4.93,0,0,1,98.14,53.86Z"/><path class="cls-6" d="M113.31,47.51s-.22-7.84-3.27-13.86c0,0-5.38,2.49-6.56,1.9s1.12-1.9,1.12-1.9S95.73,36.58,95.2,36s2.94-2.34,2.94-2.34l-5.53,1.9s-1.7,7.05-1,12c0,0-2.37-4.1-2.67-6.93s1-10.9,9.28-11.49,13,1.31,15.07,5.13S115.09,42.75,113.31,47.51Z"/><path class="cls-7" d="M103.35,51.6a6.71,6.71,0,0,1-1.63-.24l.2-.74c.76.21,2,.34,2.21,0,.08-.11.05-.35-.1-.67-1-2.22-1.26-7.83-1.27-8.06l.77,0s.21,5.69,1.19,7.76a1.32,1.32,0,0,1,0,1.49A1.75,1.75,0,0,1,103.35,51.6Z"/><path class="cls-9" d="M111.32,62.38s13,40.48,14.28,73.42c0,0,4.71,1.29,10-5.93s2.14-64.37-8-73.89C127.6,56,123,54.93,111.32,62.38Z"/><path class="cls-4" d="M113.44,69.46s2.34-5.43,1.3-9.14-4.7,0-4.7,0S111.52,66.4,113.44,69.46Z"/><path class="cls-4" d="M87.27,59.44C77.65,55.3,46.56,44.29,46.56,44.29s-21-26.94-25.21-30.83a12,12,0,0,0-5.63,9.16s13.16,27,20.47,35.26S80.56,84,80.56,84Z"/><path class="cls-9" d="M94.84,62.38s-13,40.48-14.28,73.42c0,0-4.71,1.29-10-5.93S68.4,65.5,78.56,56C78.56,56,83.16,54.93,94.84,62.38Z"/><path class="cls-4" d="M92.71,69.46S90.38,64,91.42,60.32s4.7,0,4.7,0S94.64,66.4,92.71,69.46Z"/><path class="cls-10" d="M160.76,316.21H134.87c-1.81-10.29,1.08-20.59,1.08-20.59l11.83-2c1.08,6.5,2.38,9.07,4.18,10.39h0c1.31.95,2.88,1.26,4.83,1.94a6.23,6.23,0,0,1,4,3.72A11,11,0,0,1,160.76,316.21Z"/><path class="cls-6" d="M160.8,309.64c-6.39.8-20.41,2.16-19.55-1.53C142,305,147.87,304.19,152,304h0c1.31.95,2.88,1.26,4.83,1.94A6.23,6.23,0,0,1,160.8,309.64Z"/><path class="cls-10" d="M74.05,316.21H48.16a12,12,0,0,1-.44-5,6.27,6.27,0,0,1,4.41-5.31c2.24-.78,4-1.07,5.37-2.39s2.67-4.1,3.64-9.94l11.84,2S75.85,305.92,74.05,316.21Z"/><path class="cls-6" d="M47.72,311.23a6.27,6.27,0,0,1,4.41-5.31c2.24-.78,4-1.07,5.37-2.39,3.27,1,7.86,2.87,9.28,5.68C68.76,313.06,53.62,312.45,47.72,311.23Z"/></g></g></svg>