<svg xmlns="http://www.w3.org/2000/svg" viewBox="0 0 142.28 245.09"><defs><style>.cls-1{fill:#164353;}.cls-2{fill:#225866;}.cls-3{fill:#8bbddb;}.cls-4{fill:#6097b2;}.cls-5{fill:#adbec4;}.cls-6{fill:#cfd8dc;}.cls-7{fill:#ef6e4b;}.cls-8{fill:#ff8b66;}.cls-9{fill:#db614d;}.cls-10{fill:#1a4850;}.cls-11{fill:#0e3944;}.cls-12{fill:#ce364c;}.cls-13{fill:#a02e44;}</style></defs><g id="Layer_2" data-name="Layer 2"><g id="OBJECTS"><path class="cls-1" d="M142.28,243.24a14.48,14.48,0,0,1-.11,1.85H110.71c0-.62,0-1.24.05-1.85a57.61,57.61,0,0,1,2.95-15.37l7.86-3.38a12.57,12.57,0,0,0,4.61,8.33A11.7,11.7,0,0,0,128,234c.29.15.57.3.87.43a15.73,15.73,0,0,0,2,.74,48.58,48.58,0,0,0,7.55,1.32C141.77,237,142.28,240.87,142.28,243.24Z"/><path class="cls-2" d="M142.28,243.24a14.48,14.48,0,0,1-.11,1.85H110.71c0-.62,0-1.24.05-1.85Z"/><path class="cls-2" d="M128,234l-4.37,1.4-.92-1.6,3.49-1A11.7,11.7,0,0,0,128,234Z"/><path class="cls-2" d="M130.86,235.15l-2.94,2-1.81-.71,2.74-2A15.73,15.73,0,0,0,130.86,235.15Z"/><path class="cls-1" d="M22.1,243.24a7.62,7.62,0,0,1-.35,1.85H.8a9,9,0,0,1-.59-1.85c-2.07-10,11.86-22.3,11.86-22.3l4.42,5.9s-.52,9.43,3.23,11.4A4.78,4.78,0,0,1,22.1,243.24Z"/><path class="cls-2" d="M.21,243.24H22.1a7.62,7.62,0,0,1-.35,1.85H.8A9,9,0,0,1,.21,243.24Z"/><path class="cls-2" d="M18.76,237.49s-8.83-2-12.85.59v-1.46S13.33,233,18.76,237.49Z"/><path class="cls-2" d="M17,235.25s-5.64-2.58-11.1,0l.62-1.47S13.06,231.31,17,235.25Z"/><path class="cls-3" d="M132.78,154.1c0,8.43-7.47,77.13-7.47,77.13a43.61,43.61,0,0,1-13.48-.75c-2-34.82-2.25-64.76-2.25-64.76L73.72,138.84l-.09-.07s-.13.61-.38,1.7c-1.77,7.88-9.29,40.9-12.42,48.46-3.56,8.62-42.53,44.85-42.53,44.85-7.24-1-13.38-6.24-13.38-6.24C18.91,204.33,38,181.06,38,181.06c1.49-8.36,2.55-27,3.19-40.86l0-.64c.42-9.41.63-16.52.63-16.52l-6.57-13.48L77,94.22l9.36,12s2.14,2,5.51,5.16l.47.43C104.89,123.62,132.78,150.33,132.78,154.1Z"/><path class="cls-4" d="M41.17,140.2l0-.64c8.79-4.77,7.32-12.39,7.29-12.47L49,127C49.06,127.06,50.64,135.24,41.17,140.2Z"/><path class="cls-4" d="M73.08,133.45a49.51,49.51,0,0,1,.64,5.39l-.09-.07s-.13.61-.38,1.7c-.39-13.06-5.77-20.77-5.84-20.86l.46-.32c0,.06,3.45,5,5.09,13.53,6.35-5.64.14-17.2.07-17.31l.49-.26C73.59,115.37,80.17,127.6,73.08,133.45Z"/><path class="cls-4" d="M92.36,111.79s0,0,0,0a2.69,2.69,0,0,1-.87.14c-3.08,0-8.24-4.31-8.48-4.52l.36-.42c1.68,1.42,6.35,4.83,8.56,4.34Z"/><path class="cls-5" d="M38.18,37.69s12.71-2,19.07,2S72,54.35,72,54.35s-9.92,1.31-11,8C60.93,62.4,53.72,45.24,38.18,37.69Z"/><path class="cls-6" d="M19.08,44.32C13.7,47.22,4.72,58.13,4.32,64.83,3.92,71.38,8.77,77.39,12,82.51,22.22,98.46,33,112.57,37.52,131.28c0,.12,23.31,9.36,50.64-23.49,0,0-15.44-20.77-20.78-38.46-2.17-7.2-4.38-14.85-8.55-21.2A22.7,22.7,0,0,0,38.18,37.69C31.26,38.25,24.37,41.46,19.08,44.32Z"/><path class="cls-7" d="M16.82,37.62s3.44,5.88,1.85,9.1c0,0,11.79,4.08,11.79-2.52,0,0-2.22-5-1.38-8.15Z"/><path class="cls-7" d="M43,77.83S36.47,79.7,34.81,82s-3.13,7.53-3.13,7.53H43l2.13-3.93,2.5-5.23Z"/><path class="cls-1" d="M32.18,31.08s4.61-1.94,1.63-15.79C31.83,6.11,29,4.75,27.15,4.67c0,0-2.25-3.39-10-1.77A14.49,14.49,0,0,0,5.63,13.25c-2,6.27,2,19.7,7.12,21Z"/><path class="cls-8" d="M33.27,21.72s2.9-4,4-.06c1.27,4.61-2.68,7.21-3.76,5.85S33.27,21.72,33.27,21.72Z"/><path class="cls-8" d="M9,26s-4-2.89-3.81,1.23c.28,4.78,4.86,6,5.44,4.34S9,26,9,26Z"/><path class="cls-8" d="M24.28,40.67C32,39.4,35.51,33.64,33,18.54,31.73,10.75,27,6.63,18.35,8.05S6.87,14.86,8.15,22.65C10.83,38.87,16.32,42,24.28,40.67Z"/><path class="cls-9" d="M11.59,27.61a1.65,1.65,0,0,0,1.79,1.46,1.66,1.66,0,0,0,1.82-1.43,1.66,1.66,0,0,0-1.79-1.46A1.66,1.66,0,0,0,11.59,27.61Z"/><path class="cls-9" d="M27.51,25.42a1.66,1.66,0,0,0,2.09,1A1.65,1.65,0,0,0,31,24.6a1.65,1.65,0,0,0-2.08-1A1.66,1.66,0,0,0,27.51,25.42Z"/><path class="cls-10" d="M13.76,19.2a.36.36,0,0,1-.22-.07.39.39,0,0,1-.1-.54,5.24,5.24,0,0,1,3.33-1.9.39.39,0,1,1,.1.78A4.48,4.48,0,0,0,14.08,19,.37.37,0,0,1,13.76,19.2Z"/><path class="cls-10" d="M28.27,16.8a.39.39,0,0,1-.23-.07,4.47,4.47,0,0,0-3.14-.59.38.38,0,0,1-.46-.3.38.38,0,0,1,.3-.46,5.22,5.22,0,0,1,3.77.72.39.39,0,0,1-.24.7Z"/><path class="cls-10" d="M15.16,23.17c.16,1,.72,1.67,1.25,1.58s.84-.94.68-1.9-.72-1.66-1.25-1.57S15,22.22,15.16,23.17Z"/><path class="cls-10" d="M25.46,21.47c.16,1,.71,1.67,1.25,1.58s.83-.94.67-1.89-.71-1.67-1.25-1.58S25.3,20.52,25.46,21.47Z"/><path class="cls-10" d="M28.35,30.17S21.66,32,18,31.25c0,0,2.57,3.23,6.23,2.29S28.35,30.17,28.35,30.17Z"/><path class="cls-11" d="M28.66,11.54S20,17.83,9,18.31L9.35,28S-.83,9.28,19.3,6,33.58,23.59,33.58,23.59,33,14.55,28.66,11.54Z"/><path class="cls-9" d="M21.55,27.55l-.06-.84s1.18-.09,1.48-.81c.12-.29-.37-1.24-.81-2.07a15.73,15.73,0,0,1-1.68-4.19l.83-.17a14.71,14.71,0,0,0,1.6,4c.64,1.24,1.11,2.13.83,2.79A2.65,2.65,0,0,1,21.55,27.55Z"/><path class="cls-12" d="M33.38,11.56C18.75,5.21,4.94,18.38,4.94,18.38S3.33,7.71,6.15,5.21A16.32,16.32,0,0,1,8.49,3.47c6.46-4.08,15.06-4,19-2.6a4.82,4.82,0,0,1,1.79,1C31.61,4.29,33.38,11.56,33.38,11.56Z"/><path class="cls-6" d="M31.61,9.18A34.63,34.63,0,0,0,7.86,14.33s-.73-6.88.63-10.86c6.46-4.08,15.06-4,19-2.6C29.79,3.49,31.61,9.18,31.61,9.18Z"/><path class="cls-13" d="M6.15,17.12S8.1,8.85,10.72,6.52c4.37-3.88,16.64-5.21,23.09-2.88s0,9.37,0,9.37S23.53,5.65,6.15,17.12Z"/><path class="cls-8" d="M25.13,72.11A41,41,0,0,0,38.7,84.47S49.41,75.18,63.28,76c0,0-11.5,20.75-21.37,23-5.19,1.21-24-11.22-24-11.22S21.7,74.63,25.13,72.11Z"/><path class="cls-5" d="M6.63,58c4.6-7.48,15.2,3.58,18.81,11.48s6.24,9.58,6.24,9.58S21.09,83.48,21.16,91.43C21.16,91.43-3.4,74.33,6.63,58Z"/><path class="cls-7" d="M38.7,81.05s6.46-6.33,27.68-14.6l-2.74-8.62c2.43-3.2,6.91-3.2,6.91-3.2s10.87,15.35,9,19.94C78.38,77.43,55.7,80.44,38.7,81.05Z"/><path class="cls-8" d="M62,68.52a5.45,5.45,0,0,1,.95-2c.78-1.11.57-3.13.85-3.75s2-3.18,3.06-3.67,2.56-1.31,2.87.09-2,1-3,3a8.9,8.9,0,0,1,4-.3c1.78.42,2.29,2.06.08,2a10,10,0,0,0-4,1.21s2.3.35,1.93,1.41C68.17,68,65.37,67.09,62,68.52Z"/></g></g></svg>