<svg xmlns="http://www.w3.org/2000/svg" viewBox="0 0 197.66 316.42"><defs><style>.cls-1{fill:#cfd8dc;}.cls-2{fill:#ff8b66;}.cls-3{fill:#8b383e;}.cls-4{fill:#662c33;}.cls-5{fill:#ce364c;}.cls-6{fill:#f24052;}.cls-7{fill:#a02e44;}.cls-8{fill:#ef6e4b;}.cls-9{fill:#ffb878;}.cls-10{fill:#db614d;}.cls-11{fill:#1a4850;}.cls-12{fill:#adbec4;}</style></defs><g id="Layer_2" data-name="Layer 2"><g id="OBJECTS"><path class="cls-1" d="M62.27,308.84a6.73,6.73,0,0,1-2.37-2.71,27,27,0,0,1,0-7.65c.61-3.93-1.09-7.13-6.64-8.33-5.4-1.17-8.6,1.43-7.36,12.28h0c-.82,4.51-1,9.66.88,14H63.4S66,310.81,62.27,308.84Z"/><path class="cls-2" d="M76.85,250.36a50.38,50.38,0,0,1-6.11,21.93c-6.22,11.31-13.9,26.82-13.9,26.82s-5.13,5-8.38-3.28c0,0,2.3-28.81,7.57-39.36S76.85,250.36,76.85,250.36Z"/><path class="cls-2" d="M156.51,215.11s9.89,41.61,16.19,52.59c0,0-1.45,4.59-8.27,6,0,0-21.52-31.64-22.91-45S156.51,215.11,156.51,215.11Z"/><path class="cls-3" d="M161.29,224.9c-2.63,6.33-23,6.68-23,6.68l-1.55-2.29-.41-.6L133.19,224S99.51,191,93,193.74h0a3.5,3.5,0,0,0-.56.32c-4.51,3.22-4.93,20.87-10.26,50.48a51.56,51.56,0,0,1-2.5,8.34c-.1.25-.18.48-.27.7-.49,1.26-.84,2.06-.84,2.06C58,264,51.17,247.51,51.17,247.51s.24-.48.6-1.24l.25-.56c1.08-2.37,2.8-6.49,2.78-8.67,0-2.39,0-4.68-.06-6.89,0-.2,0-.39,0-.58,0-7.12,0-13.3,0-18.68v-.56q0-3.51.1-6.57v-.58c.18-9.36.48-15.61.8-19.77,0-.19,0-.39.05-.57.56-7,1.16-7.7,1.16-7.7l-4.12-28.63H97.69s6.75,6.76,15.51,15.69l.54.54c3.18,3.23,6.61,6.74,10.05,10.31.14.14.28.27.4.41l4.05,4.18c.17.17.32.35.49.51,4.51,4.68,8.88,9.29,12.62,13.32a4.75,4.75,0,0,1,.38.4c5.12,5.54,9,10,10.36,12A83.41,83.41,0,0,1,160,220.83h0c.08.2.15.38.21.57C160.89,223.54,161.29,224.9,161.29,224.9Z"/><path class="cls-4" d="M63.59,179.43a12.14,12.14,0,0,1-7.94,4c0-.19,0-.39.05-.57a11.5,11.5,0,0,0,7.47-3.78,12.53,12.53,0,0,0,2.58-8.6l.55-.07A13,13,0,0,1,63.59,179.43Z"/><path class="cls-4" d="M113.74,162.74c-.18,0-.34,0-.52,0-5,0-10.21-5.47-10.48-5.74l.4-.39c.07.07,5.26,5.51,10.06,5.56Z"/><path class="cls-4" d="M79.62,252.88c-.1.25-.18.48-.27.7a26.34,26.34,0,0,1-9.17,1.73c-8.89,0-15-5.15-18.41-9l.25-.56C56.34,250.78,65.57,258.25,79.62,252.88Z"/><path class="cls-4" d="M91.69,183.43a46.72,46.72,0,0,1,1.25,10.31,3.5,3.5,0,0,0-.56.32c0-16.76-9.73-29.84-9.84-30l.45-.34a57.79,57.79,0,0,1,8.56,19.11,5.08,5.08,0,0,0,2.22-3.19c1.4-5.88-5-15.5-5-15.6l.46-.31c.26.41,6.55,9.92,5.1,16A5.63,5.63,0,0,1,91.69,183.43Z"/><path class="cls-4" d="M141.73,191.87c-1.65,1.79-3.21,3.33-3.35,3.46l-.3.3-.15-.4c-2.17-5.7-16.16-18-16.31-18.16l-.16-.16,2.33-3.86c.14.14.28.27.4.41l-2,3.24a13.58,13.58,0,0,0,6,.94c.17.17.32.35.49.51a8.32,8.32,0,0,1-1.45.13,15,15,0,0,1-4.3-.75c3.17,2.87,13,12,15.31,17.11.88-.87,2-2,3.06-3.17A4.75,4.75,0,0,1,141.73,191.87Z"/><path class="cls-4" d="M65,230.05l-.22,0a27.94,27.94,0,0,1-5.63.58,16.47,16.47,0,0,1-4.38-.52c0-.2,0-.39,0-.58,3.67,1.05,8.56.24,9.67,0l-.93-23.1A7.46,7.46,0,0,1,60,210.45a6.67,6.67,0,0,1-3.08.69,9.8,9.8,0,0,1-2.15-.25v-.56a7.26,7.26,0,0,0,5-.38,7.55,7.55,0,0,0,3.57-4.65c-1.85.28-5.59-.67-8.45-1.54v-.58c3.08.93,7.24,2,8.74,1.49l.36-.13Z"/><path class="cls-4" d="M160.17,221.41a28.16,28.16,0,0,1-20,8.06,33,33,0,0,1-3.36-.18l-.41-.6c12.38,1.42,20.14-4.38,23.59-7.85C160,221,160.11,221.22,160.17,221.41Z"/><path class="cls-5" d="M106,24.77s-1.23-2.84-6.45-2.84c-4,0-5.56,2.22-5.56,2.22-2.41,7-5,34-5.92,34.91-.47.49-30.29,20.58-30.29,20.58,16.18.3,26.28,20.25,26.28,20.25.53-6.55,18.81-32.53,19-34.85C103.42,60.67,111.15,41.15,106,24.77Z"/><path class="cls-5" d="M54.21,165.55s-.15,5.62,1.67,6a51.11,51.11,0,0,0,33.64-3c17-7.74,20-13.47,15-17.73S54.21,165.55,54.21,165.55Z"/><path class="cls-6" d="M47.39,83.52S31.9,81.69,23,85.53c0,0-2.48,11,9.73,35.59s9.37,40.1,23.13,45.93c12.2,5.17,48.17-10.22,49.3-15.32C108,138.88,86,116.34,84.64,103.27S70.48,70.57,47.39,83.52Z"/><path class="cls-5" d="M23,85.53c-10.82,3.85-23,16-23,21.86s10.16,8.12,10.16,8.12l16.68-8.12s4.77-3.33,1.73-13S23,85.53,23,85.53Z"/><path class="cls-1" d="M67.5,96.37a18.33,18.33,0,0,1-9.74-3,5.23,5.23,0,0,1-2.37-3.19c-.61-3.85,3.13-5.8,3.29-5.88l.51,1c-.13.06-3.19,1.67-2.7,4.72a4.17,4.17,0,0,0,1.91,2.46,16.45,16.45,0,0,0,10.77,2.6,3.67,3.67,0,0,0,2.75-1.51,2.57,2.57,0,0,0,.07-2l1-.44a3.6,3.6,0,0,1-.11,2.94,4.68,4.68,0,0,1-3.54,2.09A11,11,0,0,1,67.5,96.37Z"/><path class="cls-1" d="M53.77,108.08c-2.39,0-6.37-1-6.93-4.93A19.71,19.71,0,0,1,46.9,98c.24-2.17.43-3.88-.84-5.94-2.08-3.38-4.92-3.61-5-3.62l.06-1.11c.15,0,3.53.25,5.93,4.15,1.46,2.38,1.24,4.45,1,6.64a18.1,18.1,0,0,0-.07,4.86c.6,4.25,6,4,6.24,4l.07,1.11Z"/><path class="cls-5" d="M57.14,88.15s8.19-5.57,6.25-11.61-28.32-5.62-35.12,1.6S43,90.14,43,90.14C44.65,86.79,55.29,86.42,57.14,88.15Z"/><path class="cls-7" d="M42.42,87.21c-3.89-1.32-6.19-4.12-5.36-7.36s17.54-3.33,20.71-.74S56.47,92,42.42,87.21Z"/><path class="cls-8" d="M40.57,78.11S44,84,42.42,87.21c0,0,11.79,4.07,11.79-2.53,0,0-2.22-4.94-1.38-8.14Z"/><path class="cls-9" d="M36.64,73s-5.8-9.28-5.26-18.14c.27-4.44,2.55-6.17,2.55-6.17s-1.84-2.56.13-6.47c0,0,2.73,3.16,12.31,2.16C55.6,43.4,56.53,50,56.53,50c6.6,1,2.14,20.95-2.46,23Z"/><path class="cls-2" d="M34.18,64.41s-3.33-3.32-3.74.56c-.47,4.5,3.61,6.32,4.41,4.88S34.18,64.41,34.18,64.41Z"/><path class="cls-2" d="M57.5,64.65s3.33-3.33,3.74.56c.47,4.5-3.61,6.31-4.41,4.88S57.5,64.65,57.5,64.65Z"/><path class="cls-2" d="M45.49,80.71c-7.39,0-11.56-4.82-11.56-19.3,0-7.47,3.8-12,12.08-12s11.76,4.58,11.76,12C57.77,77,53.12,80.71,45.49,80.71Z"/><path class="cls-10" d="M55.32,66.57a1.75,1.75,0,1,1-1.92-1A1.56,1.56,0,0,1,55.32,66.57Z"/><path class="cls-10" d="M40.12,67a1.75,1.75,0,1,1-1.61-1.47A1.57,1.57,0,0,1,40.12,67Z"/><path class="cls-9" d="M52.07,58.81a.35.35,0,0,1-.28-.07,4.28,4.28,0,0,0-3-.58.37.37,0,0,1-.43-.29.38.38,0,0,1,.29-.44,5,5,0,0,1,3.55.73.35.35,0,0,1,.07.51A.33.33,0,0,1,52.07,58.81Z"/><path class="cls-9" d="M37.92,58.86a.36.36,0,0,1-.24-.13.38.38,0,0,1,.06-.52,5,5,0,0,1,3.52-.83.36.36,0,0,1,.31.42.37.37,0,0,1-.42.31,4.31,4.31,0,0,0-2.95.67A.32.32,0,0,1,37.92,58.86Z"/><path class="cls-11" d="M51.3,63c0,.92-.41,1.67-.92,1.67s-.92-.75-.92-1.67.41-1.66.92-1.66S51.3,62.07,51.3,63Z"/><path class="cls-11" d="M41.43,63c0,.92-.41,1.67-.92,1.67s-.92-.75-.92-1.67.41-1.66.92-1.66S41.43,62.07,41.43,63Z"/><path class="cls-9" d="M36.2,51A50.37,50.37,0,0,0,55.36,53s2.41,3,2.12,13.59c0,0,6.61-19.07-12.69-19.07S34.18,66.2,34.18,66.2,32.61,54.54,36.2,51Z"/><path class="cls-10" d="M46,67.92l-.56-.56,1.46-1.45c-1.41-2-1.4-6.64-1.4-6.85h.78s0,5,1.44,6.6l.26.28Z"/><path class="cls-11" d="M41.05,70.33s7.27.31,11-.66a4.87,4.87,0,0,1-5,5.55C41.05,75.5,41.05,70.33,41.05,70.33Z"/><path class="cls-1" d="M72.13,90.33c1.39-.26,1.25,3.37,0,2.32S70.74,90.59,72.13,90.33Z"/><path class="cls-1" d="M55.39,107.93c-.21,1.39-3.59.07-2.19-.76S55.6,106.53,55.39,107.93Z"/><path class="cls-8" d="M40.5,115.51s-2.21,5.65-2.08,8.84,1.17,2.78,1.17,2.78a3.43,3.43,0,0,0-2,2.49c-.32,1.84,4.33,3.2,4.65,3.2s3.6-1.25,3.6-1.25l.69-10.45-2.91-1.82Z"/><path class="cls-2" d="M42.25,114.77a45.83,45.83,0,0,1,5.57,4c1.55,1.53.66,13.32,0,13.88s-5.79,1.7-6.77,1.06.38-4.12.38-4.12,2.57-.55,2.2.42a2.54,2.54,0,0,0,0,1.8l1.06-.41a12.21,12.21,0,0,1,0-4.58c.52-1.94-3.62-4-4.12-7.55S42.25,114.77,42.25,114.77Z"/><path class="cls-5" d="M.67,109c-1.29-5.55,4.22-7.51,11.88-6.57,8.88,1.1,27.12,3.42,31.08,13.05,0,0,1.3,3.79-2.05,5.61C32.21,126.22,3.08,119.45.67,109Z"/><path class="cls-7" d="M28.45,105.35s-10.58-4.4-15.86-4.84S19.88,104.67,28.45,105.35Z"/><path class="cls-2" d="M107.8,10.05a23.78,23.78,0,0,0-2.12,4.45c-.55,3-.88,4.62-1.92,6s-.49,3.77-.49,3.77-4,2.08-7.44-.49c0,0,.36-2.38,0-3.06-.7-1.36-2.94-2.08-3.7-4.81a21.47,21.47,0,0,0-3.07-5.79s.66-1.43,1.86-.56,2,3.06,2.63,3.29a2.59,2.59,0,0,0,.4.09h0a1.64,1.64,0,0,0,1.32-.35.21.21,0,0,0,.08-.06c1.1-1.28,1.35-5,1.31-6.71-.07-2.33,0-5.55,1.44-5s.12,1.85,1.22,7l.54.06c.1.37,1.07-3.12,1.31-6.39.16-2.26,1.64-1.42,2-.71s-.17,3-.27,4.58c-.07,1.08-.16,2.2-.22,2.87l.62.34c2.25-3.91,1.48-5.53,2.79-5.61s.83,3.22.13,4.48a12.54,12.54,0,0,0-.82,2.79c2.3-2.66,2-4.05,3.1-3.88S108.6,9.14,107.8,10.05Z"/><path class="cls-8" d="M97.88,16.17C97.1,14,94.32,13.05,94,12.94a1.64,1.64,0,0,0,1.32-.35A3.91,3.91,0,0,1,97.88,16.17Z"/><path class="cls-1" d="M49.65,300.14s-1.54-3.14-.17-4.48,3,1.15,5.32.59,2.88-2.21,3.49.05S58.16,305.69,49.65,300.14Z"/><path class="cls-12" d="M58.45,300s-6.28,2.23-9.54,0l.83,2.72s6.83.72,7.77-1Z"/><path class="cls-12" d="M58.37,303.38s-5.75-.8-8.53.63v1.35s7.5-1.75,9.93,0Z"/><path class="cls-12" d="M49.56,308.16a5.24,5.24,0,0,1,4.62-2.91A9.1,9.1,0,0,1,60,307S54.49,304.69,49.56,308.16Z"/><path class="cls-1" d="M197.66,270.38A46.67,46.67,0,0,1,171.58,288c-4.37-3.49-4.48-7.62-4.48-7.62s-4.21-3.75-4.76-5.55,3.61-7.22,6.1-6.66a5,5,0,0,1,3.18,2.56c-2.07-4.65-.41-6.27,2.52-5.87s.17,1.13,2.35,3.59a3.24,3.24,0,0,0,.53.45,3.54,3.54,0,0,0,1.42.57,6.58,6.58,0,0,0,1.56.08l.89-.09a11.92,11.92,0,0,0,1.74-.43,14.44,14.44,0,0,0,2.81-1.21c3.82-2.08,5.43-2.79,8.34-2s2.85,2.93,2.85,2.93Z"/><path class="cls-12" d="M197.66,270.38A46.67,46.67,0,0,1,171.58,288c7.67-3.3,14.72-7.62,19.54-12.94S197.66,270.38,197.66,270.38Z"/><path class="cls-12" d="M177,268.86a3.54,3.54,0,0,0,1.42.57,3.74,3.74,0,0,0-3.13,3.2l-1.25-.4C174.33,269.09,176.8,268.87,177,268.86Z"/><path class="cls-12" d="M179,272.94l-1.3,0a3.43,3.43,0,0,1,.76-3.55,6.58,6.58,0,0,0,1.56.08A3.71,3.71,0,0,0,179,272.94Z"/><path class="cls-12" d="M182.19,272.23l-1.29.16a3.58,3.58,0,0,1,0-3,11.92,11.92,0,0,0,1.74-.43A3.81,3.81,0,0,0,182.19,272.23Z"/><path class="cls-5" d="M58.57,135.31s2.85,15.39-2.92,21.52-1.95,1.09-.23-6.81S55.83,133.79,58.57,135.31Z"/><path class="cls-5" d="M85.18,128.45s9.08,3,13.84,11.38C99,139.83,92.67,126.16,85.18,128.45Z"/></g></g></svg>