<svg xmlns="http://www.w3.org/2000/svg" viewBox="0 0 144.59 252.83"><defs><style>.cls-1{fill:#3e6575;}.cls-2{fill:#ef6e4b;}.cls-3{fill:#662c33;}.cls-4{fill:#ff8b66;}.cls-5{fill:#8b383e;}.cls-6{fill:#8bbddb;}.cls-7{fill:#f24052;}.cls-8{fill:#0e3944;}.cls-9{fill:#6097b2;}.cls-10{fill:#db614d;}.cls-11{fill:#1a4850;}.cls-12{fill:#cfd8dc;}.cls-13{fill:#adbec4;}</style></defs><g id="Layer_2" data-name="Layer 2"><g id="OBJECTS"><path class="cls-1" d="M61.5,105.17c1.9,4.86,9.67,13.18,9.67,13.18s19-11.38,27.74-6.59,15.72,7.71,21.4,5.63S101.64,71,101.64,71L70.06,59s-.69,8-4.3,9.41-7.45,14.6-7.2,17.1S61.5,105.17,61.5,105.17Z"/><path class="cls-2" d="M97,118.64s-8.14,16-25,36.41c0,0-1.72,24.31-46.18,62.55l-4.65-3.66S47.72,172.47,53,159.76s-2.93-24.37,21.43-56.53Z"/><path class="cls-3" d="M71.12,90.4c-7,13.42-9.36,30.59-9.36,30.59l-3.2,8A89.83,89.83,0,0,0,83,137.37l5.24-13.88Z"/><path class="cls-4" d="M107.68,117.39s3.47,17.57,2.9,44c0,0,13.67,20.17,2.39,77.71H107s-4.83-49-8.53-62.23S81.14,159.57,80.4,119.24Z"/><path class="cls-5" d="M111.15,136.26s-11.14,2-30.76,1.07l-.31-2.21-.08-.56-2-14.3a39.07,39.07,0,0,1-3.83-6.13c-.23-.45-.45-.9-.67-1.38-2.65-5.63-5-13.81-2.36-22.35l4.14.19.58,0,13.86.64.58,0,4.56.21.71,0,2.95.14s15,13.51,12.34,38.49l.18,3.48,0,.56Z"/><path class="cls-3" d="M75.83,90.62c-.39,1.15-3,9.63-1.69,23.51-.23-.45-.45-.9-.67-1.38-1-12.69,1.28-20.6,1.78-22.16.07-.19.1-.28.1-.29l.52.19S75.85,90.55,75.83,90.62Z"/><path class="cls-3" d="M111,134.2c-3.94,1-10.63,1.29-17,1.29-5.69,0-11.1-.23-14-.37l-.08-.56c5,.24,18.11.75,26.57-.17l-.54-8.94A56.39,56.39,0,0,0,100,100c-7.71-1.4-9.83-7.1-10.28-8.71-.07-.26-.1-.41-.1-.42l.54-.09a5,5,0,0,0,.14.54,11.85,11.85,0,0,0,9.38,8,55.89,55.89,0,0,0-4.82-7.84L94.42,91l.42-.36s.28.34.7.92c2.57,3.5,11.27,16.66,11,33.9l.55,8.89a29,29,0,0,0,3.88-.68Z"/><path class="cls-6" d="M82.67,30.16c-4.42-2.43-36.26,10.06-36.26,10.06s-4.71,8.4-1.78,11.69,13.36,1.85,16.55,0,11.65-3.23,11.65-3.23Z"/><path class="cls-7" d="M110.83,3.65a16.63,16.63,0,0,1,9,10.12c2.41,7.58-4.78,26.76-2.3,35.58s2.1,25.48-5.66,29-23.69-2.77-27.11-12.4S82.8,19.87,89.37,7.47,109.25,1.32,110.83,3.65Z"/><path class="cls-6" d="M103.27,36.35c1.73,1.87,6.19-1.46,6.19-1.46s-.09,16.53-4.89,17.8S87.51,39.66,88,35.78,99.42,32.2,103.27,36.35Z"/><path class="cls-8" d="M84.74,32.21A33.86,33.86,0,0,0,98.07,38.3c8.47,2,13.06-2,17.4,3.45,6.5,8.19-4.08,23.31-9.65,31.14-2.07,2.92-6.45,11-7.33,18.78,0,0-14.7,4.27-27.37-1.27l-1-18S62.18,48.07,84.74,32.21Z"/><path class="cls-6" d="M99.94,49.75s6.71-16,8.66-17,6.87,1.43,7.86,3.62,0,7,0,7S111.17,37.27,99.94,49.75Z"/><path class="cls-9" d="M132.1,117.38c-3.06,6.25-10.55,8.05-10.55,8.05S121,124.57,120,123c-.1-.15-.21-.33-.31-.51-5.9-9.56-23.92-40.15-23.56-56.06A41.52,41.52,0,0,1,109,37c6.3,1.5,8.28,3.22,8.28,3.22a77.85,77.85,0,0,1,.18,23.83c-1.94,13-5.47,16.44-3.7,17.41s0,2.91,0,2.91,10.45,14.56,12.41,19.09c1.26,3,3.42,8,4.76,11.1.09.22.18.45.27.65C131.73,116.53,132.1,117.38,132.1,117.38Z"/><path class="cls-4" d="M114,40.22s-7.48,5.54-3.12,14L131.56,75.7c-11.38,12.12-12.51,17.1-20.73,22.69l3.12,4.84S142.76,81.09,142.8,75.7C142.82,73.39,125.21,45.48,114,40.22Z"/><path class="cls-4" d="M110.37,98.4a59.76,59.76,0,0,0-6.44,1.06c-2.49.62-5.8,1.24-5.91,1.76s5.5,0,5.5,0-4.56,1.87-4.67,2.59,5.81-.52,5.81-.52-3.73,2.28-3.53,2.91,4.81-.94,4.81-.94a14.83,14.83,0,0,1-1.74,3.22s.89.49,2.7-1.52,4.69-1.36,7-3.15S112.45,98.13,110.37,98.4Z"/><path class="cls-9" d="M89.19,34.88S83.5,38.55,79.9,47.44,65,73,62.31,77.35s-.81,27.82-.81,27.82-3.33-14.25-4.81-19.8,4.78-19.27,5.72-20,5.76.61,4.83-5,12-29.57,15.43-30.25C82.67,30.16,88.19,31.2,89.19,34.88Z"/><path class="cls-9" d="M71.59,36.08a3.19,3.19,0,0,1-.35.55A14.16,14.16,0,0,1,67.56,40s-4.34,6.09-4.39,6.79-7.54,6-10.87,5.93h0a1.74,1.74,0,0,1-1.1-.38c-2-1.87,6.73-17.52,8.65-20.9.12-.22.22-.39.29-.5l.08-.14s-1.53-5.71,4.86-4.64c5.32.88,6.37,5.11,6.93,7.94A3.08,3.08,0,0,1,71.59,36.08Z"/><path class="cls-4" d="M49.26,42c4.39-5.77,19.85-17,28-20.29l2,3.79S63.55,39.32,59.86,45.24s-8.28,8.36-12.65,6.39S48.33,43.21,49.26,42Z"/><path class="cls-6" d="M70.06,34.89l-.84,1-.42.49-1.37,1.58s-3.47,4.2-3.34,5.88c.1,1.21-6.57,6.63-11.79,8.89-2.12.92-4,1.32-5.1.68-3.78-2.17-2.93-8.71-.79-13.14,1.86-3.86,10.11-8.85,12.23-10.07a5.57,5.57,0,0,1,.49-.29h0l.79-3.07s2.88-1.73,5.14-.66c0,0-5,.21-4.17,2.15S68.67,34.82,70.06,34.89Z"/><path class="cls-4" d="M88.2,18.87c-5,2.06-4.31,6.62-8.92,6.62-2.85,0-3.23-3.27-3.23-3.27a35.22,35.22,0,0,0,2.29-9.8c.19-2.27.94-1.39.94-1.39,0-.21,0-.41,0-.61-.07-1.52-.34-2.63.66-2s1.52,5,1.52,5c.93-6.28-.46-7.21.63-6.66,1.49.76,1.5,6.31,1.5,6.48,1.2-3.66.88-5.74,1.71-4.91s-.42,7.55-.92,10c-.11.56-.19.9-.19.9C88.15,17.35,88.2,18.87,88.2,18.87Z"/><path class="cls-2" d="M84.36,18.4c-.11.56-.19.9-.19.9A3.68,3.68,0,0,0,81,21.11,3.3,3.3,0,0,1,84.36,18.4Z"/><path class="cls-2" d="M79.56,15.54c0-.53.26-3.59-.28-4.51,0-.21,0-.41,0-.61C80.42,10.66,79.68,14.89,79.56,15.54Z"/><path class="cls-6" d="M82.68,42s3.4-9.22,4.48-11.27,6.71-1.71,11-.91,5.13,6.5,5.13,6.5S90.3,30.23,82.68,42Z"/><path class="cls-2" d="M104.57,23.89a37.14,37.14,0,0,0-4,15.86s-6.61,4.5-9-1.13a42.87,42.87,0,0,0,1.3-17.34C92.06,14.62,104.57,23.89,104.57,23.89Z"/><path class="cls-4" d="M91.58,13.46s-1.21-4.31-3.36-1.28c-2.5,3.51,0,6.92,1.37,6.11S91.58,13.46,91.58,13.46Z"/><path class="cls-4" d="M110.81,24.54s4.31-1.2,2.83,2.22c-1.7,3.95-5.94,3.55-5.93,2S110.81,24.54,110.81,24.54Z"/><path class="cls-4" d="M93.34,32.26c-6.12-3.45-7.33-9.4-.57-21.4,3.49-6.19,8.78-8.22,15.64-4.35S116,15.8,112.54,22C105.27,34.89,99.67,35.82,93.34,32.26Z"/><path class="cls-10" d="M108.1,25.13A1.67,1.67,0,0,1,105,24a1.67,1.67,0,0,1,3.07,1.09Z"/><path class="cls-10" d="M95.31,18.37a1.67,1.67,0,1,1-.65-2A1.49,1.49,0,0,1,95.31,18.37Z"/><path class="cls-11" d="M109,17.37a.36.36,0,0,1-.34-.27,4,4,0,0,0-1.87-2.18.34.34,0,0,1-.15-.47.35.35,0,0,1,.47-.15,4.66,4.66,0,0,1,2.23,2.63.35.35,0,0,1-.25.43Z"/><path class="cls-11" d="M100.56,11.38a.41.41,0,0,1-.18-.05,4,4,0,0,0-2.84-.47.36.36,0,0,1-.44-.24.36.36,0,0,1,.24-.44,4.71,4.71,0,0,1,3.4.55.34.34,0,0,1,.12.48A.34.34,0,0,1,100.56,11.38Z"/><path class="cls-11" d="M106.44,20.27c-.43.76-1.12,1.19-1.54.95s-.42-1,0-1.81,1.12-1.18,1.54-.95S106.87,19.51,106.44,20.27Z"/><path class="cls-11" d="M97.85,15.67c-.43.76-1.12,1.18-1.54.94s-.42-1,0-1.81,1.12-1.18,1.54-.94S98.28,14.91,97.85,15.67Z"/><path class="cls-11" d="M94.88,23.48s3.51,2.68,6.05,2.76c0,0-2.7,2.2-4.64.77A3.49,3.49,0,0,1,94.88,23.48Z"/><path class="cls-11" d="M104.6,18.74s1.61-1.56,2.27-1,.31,2.46.31,2.46l1.42,0-1.17-.47s.37-2-.35-2.41C106.05,16.77,104.6,18.74,104.6,18.74Z"/><path class="cls-11" d="M98.52,15.62s.49-2.19-.32-2.47-2.27,1-2.27,1L95.17,13l1,.75s1.51-1.35,2.24-.94C99.45,13.35,98.52,15.62,98.52,15.62Z"/><path class="cls-7" d="M110,9.07a3.51,3.51,0,0,0-5.23-.62c-3,2.42-9.87,6.29-13.23,5S98.94-2.15,108.25,2.05s8.47,17.86,4.6,22.2-2,.29-2,.29a48.17,48.17,0,0,1,1.55-10.24A3.89,3.89,0,0,0,110,9.07Z"/><path class="cls-10" d="M99.72,22.08a2,2,0,0,1-.53-.07l.18-.73a.88.88,0,0,0,1.09-.37,1,1,0,0,0,0-1c-.1-.1-.26-.09-.5,0l-.35-.67a1.1,1.1,0,0,1,1.4.12,1.66,1.66,0,0,1,.09,1.9A1.55,1.55,0,0,1,99.72,22.08Z"/><path class="cls-6" d="M144.59,74.85c-.37,5.38-13.69,22.91-15.91,23.54a5.63,5.63,0,0,0-1.72.85c-.24.17-.47.34-.69.52a16.35,16.35,0,0,0-2.22,2.2c-3.89-.26-14.8-5.31-11.29-6.42a2.75,2.75,0,0,0,.7-.36,3.37,3.37,0,0,0,.45-.36c4.13-3.46,12.17-17.52,12.23-18.58s1.43-1.39,1.43-1.39-7.58-11.14-12-12.48S109,55.71,109,55.71c-4.34-18.38,8.28-15.49,8.28-15.49C126.56,45.76,145,69.45,144.59,74.85Z"/><path class="cls-1" d="M127,99.24c-.24.17-.47.34-.69.52a27.81,27.81,0,0,1-12.81-4.58,3.37,3.37,0,0,0,.45-.36A27,27,0,0,0,127,99.24Z"/><path class="cls-1" d="M71.59,36.08a3.19,3.19,0,0,1-.35.55,13.68,13.68,0,0,1-2.44-.3,18.38,18.38,0,0,1-9-4.93c-.45-.44-.85-.86-1.2-1.25a5.57,5.57,0,0,1,.49-.29c.29.32.62.68,1,1a17.61,17.61,0,0,0,9.09,4.94A13,13,0,0,0,71.59,36.08Z"/><path class="cls-1" d="M131.17,115.21A15.7,15.7,0,0,1,120,123c-.1-.15-.21-.33-.31-.51a15.23,15.23,0,0,0,11.18-7.94C131,114.78,131.08,115,131.17,115.21Z"/><path class="cls-12" d="M30.12,216.23a19.23,19.23,0,0,0-2.83,3.87c-1.44,2.51.14,4.82-6.84,10.64,0,0-14.09-8.25-20.45-18.85a4.1,4.1,0,0,1,3.19-3.74c1.65-.38,6.2,1.75,10.58,2.57.62.11,1.24.21,1.85.26a12,12,0,0,0,2.24,0,6.88,6.88,0,0,0,1.89-.46h0A5.61,5.61,0,0,0,23,206.57s3.74,2.13,1.24,5.74C24.28,212.31,28.72,210.37,30.12,216.23Z"/><path class="cls-13" d="M20.45,230.74S6.36,222.49,0,211.89c0,0,2.36-.5,4.32,3S21.59,226.4,20.45,230.74Z"/><path class="cls-13" d="M20.51,214.06c-1.15,1.81-1.13-1.53-2.65-3.09a6.88,6.88,0,0,0,1.89-.46h0C20.44,211.24,21.41,212.65,20.51,214.06Z"/><path class="cls-13" d="M16.08,214.16c-1.21,1.15-1.6-1.84-2.31-3.44.62.11,1.24.21,1.85.26C16.33,211.94,17,213.29,16.08,214.16Z"/><path class="cls-12" d="M116.8,252.83H96.87a11.75,11.75,0,0,1,0-5.83c.36-1.32,2.42-2.55,4.34-4.27a17,17,0,0,0,1.52-1.54,9.25,9.25,0,0,0,1-1.46,7,7,0,0,0,.82-2.07,9.1,9.1,0,0,0-.66-5.42s6.78-1.42,9.2,2.27c0,0,.23-1.71,2.39-.56a31.68,31.68,0,0,0,.11,6.3C116,243.12,118.7,244,116.8,252.83Z"/><path class="cls-13" d="M111.61,240.83a.87.87,0,0,1-.66.3,1,1,0,0,1-.59-.2,7.28,7.28,0,0,0-6.62-1.2,7,7,0,0,0,.82-2.07c1.34-.49,3.85-.78,6.94,1.86A.91.91,0,0,1,111.61,240.83Z"/><path class="cls-13" d="M109.94,244.14l-.11.17a.91.91,0,0,1-1.22.3c-1.36-.8-4.4-2.31-7.4-1.88a17,17,0,0,0,1.52-1.54,7.9,7.9,0,0,1,7,1.74A.94.94,0,0,1,109.94,244.14Z"/></g></g></svg>